<svg id="e22hg13hdcuv1" xmlns="http://www.w3.org/2000/svg" xmlns:xlink="http://www.w3.org/1999/xlink" viewBox="0 0 790 701.992190" shape-rendering="geometricPrecision" text-rendering="geometricPrecision"><path id="e22hg13hdcuv2" d="M883.923350,679.036770C870.593610,718.078660,853.451280,757.036480,831.490260,794.115530C831.002820,794.950530,830.509900,795.768950,830.012750,796.600940L775.644310,779.400840C775.957080,778.613840,776.299600,777.733080,776.667540,776.771730C798.596680,720.060990,930.900080,374.535310,924.961540,306.409790C925.600810,311.986210,946.298070,496.530490,883.923350,679.036770Z" transform="matrix(1 0 0 1 -205 -99.00390000000000)" fill="rgb(230,230,230)" stroke="none" stroke-width="1"/><path id="e22hg13hdcuv3" d="M841.979220,797.433840C841.240360,798.189270,840.482220,798.938590,839.718610,799.671500L798.932610,786.768380C799.483980,786.101250,800.126130,785.315230,800.864500,784.426730C812.943880,769.674870,848.855960,725.508170,883.923310,679.036730C921.608620,629.097130,958.325560,576.503730,963.471430,554.892950C962.437880,559.807260,930.255280,709.403390,841.979220,797.433840Z" transform="matrix(1 0 0 1 -205 -99.00390000000000)" fill="rgb(230,230,230)" stroke="none" stroke-width="1"/><path id="e22hg13hdcuv4" d="M862.366640,222.118160C862.351260,222.118160,862.337040,222.122560,862.321640,222.123050L862.321640,134.693850C862.321607,114.982831,846.342659,99.003910,826.631640,99.003910L552.911640,99.003910C533.200621,99.003910,517.221673,114.982831,517.221640,134.693850L517.221640,179.514650C515.649898,179.548166,514.392866,180.831221,514.391560,182.403320L514.391560,204.603520C514.392744,206.175587,515.649921,207.458573,517.221640,207.491700L517.221640,230.748540L517.076560,230.748540C516.308746,230.748500,515.572368,231.053495,515.029442,231.596422C514.486515,232.139348,514.181520,232.875726,514.181560,233.643540L514.181560,276.573230C514.181523,277.341043,514.486519,278.077419,515.029445,278.620345C515.572371,279.163271,516.308747,279.468267,517.076560,279.468230L517.221640,279.468230L517.221640,296.518520L517.176530,296.518520C516.408725,296.518493,515.672360,296.823495,515.129444,297.366420C514.586529,297.909345,514.281540,298.645715,514.281580,299.413520L514.281580,342.763130C514.281540,343.530935,514.586529,344.267305,515.129444,344.810230C515.672360,345.353155,516.408725,345.658157,517.176530,345.658130L517.221640,345.658130L517.221640,764.684080C517.221673,784.395099,533.200621,800.374020,552.911640,800.374020L826.631640,800.374020C846.342659,800.374020,862.321607,784.395099,862.321640,764.684080L862.321640,307.133790C862.337020,307.133790,862.351240,307.138180,862.366640,307.138180C863.733815,307.138252,865.045018,306.595190,866.011777,305.628472C866.978536,304.661754,867.521653,303.350575,867.521640,301.983400L867.521640,227.273400C867.521690,224.426313,865.213727,222.118243,862.366640,222.118160Z" transform="matrix(1 0 0 1 -205 -99.00390000000000)" fill="rgb(63,61,86)" stroke="none" stroke-width="1"/><path id="e22hg13hdcuv5" d="M841.011660,144.684000L841.011660,754.684000C841.006139,769.818220,828.735881,782.084001,813.601660,782.084000L565.941660,782.084000C550.807439,782.084001,538.537181,769.818220,538.531660,754.684000L538.531660,144.684000C538.531660,129.545875,550.803535,117.274000,565.941660,117.274000L603.001660,117.274000L603.001660,122.084000C603.007178,134.546780,613.108880,144.648482,625.571660,144.654000L751.571660,144.654000C764.017196,144.626429,774.091691,134.529567,774.091660,122.084000L774.091660,117.324000L813.601660,117.324000C828.720280,117.323975,840.984081,129.565405,841.011660,144.684000Z" transform="matrix(1 0 0 1 -205 -99.00390000000000)" fill="rgb(255,255,255)" stroke="none" stroke-width="1"/><path id="e22hg13hdcuv6" d="M469.760719,450.666064C465.634198,449.508635,461.011880,449.734648,457.137526,451.283290C453.263173,452.831933,450.534762,455.544124,449.686448,458.690076L326.848244,507.072887L348.446052,524.681008L462.523470,471.648908C470.079781,472.346161,477.161820,468.839301,479.008243,463.486035C480.854667,458.132769,476.881853,452.625169,469.760775,450.666064Z" transform="matrix(1 0 0 1 -228.74221839346143 -88.94310264730763)" fill="rgb(255,184,184)" stroke="none" stroke-width="1"/><polygon id="e22hg13hdcuv7" points="211.903000,687.551000 222.900000,680.438000 200.697000,634.635000 184.466000,645.133000 211.903000,687.551000" fill="rgb(255,184,184)" stroke="none" stroke-width="1"/><path id="e22hg13hdcuv8" d="M413.532510,772.484230L454.695280,772.484230L454.695280,788.388000L428.841640,788.388000C424.781409,788.388000,420.887474,786.775079,418.016457,783.904063C415.145441,781.033046,413.532520,777.139111,413.532520,773.078880L413.532520,772.484210Z" transform="matrix(-0.83965900000000 0.54311400000000 -0.54311400000000 -0.83965900000000 1017.49000000000001 1100.96000000000004)" fill="rgb(47,46,65)" stroke="none" stroke-width="1"/><polygon id="e22hg13hdcuv9" points="88.511000,689.206000 101.608000,689.206000 107.841000,638.688000 88.511000,638.688000 88.511000,689.206000" fill="rgb(255,184,184)" stroke="none" stroke-width="1"/><path id="e22hg13hdcuv10" d="M290.704600,784.467340L331.867370,784.467340L331.867370,800.371140L306.013730,800.371140C301.953494,800.371143,298.059554,798.758221,295.188534,795.887199C292.317514,793.016177,290.704595,789.122236,290.704600,785.062000L290.704600,784.467330Z" transform="matrix(-1 0 -0 -1 417.57200000000000 1485.82999999999993)" fill="rgb(47,46,65)" stroke="none" stroke-width="1"/><path id="e22hg13hdcuv11" d="M594,197.996090L567,197.996090C565.619288,197.996090,564.500000,196.876802,564.500000,195.496090C564.500000,194.115378,565.619288,192.996090,567,192.996090L594,192.996090C595.380712,192.996090,596.500000,194.115378,596.500000,195.496090C596.500000,196.876802,595.380712,197.996090,594,197.996090Z" transform="matrix(1 0 0 1 -205 -99.00390000000000)" fill="rgb(63,61,86)" stroke="none" stroke-width="1"/><path id="e22hg13hdcuv12" d="M594,204.996090L567,204.996090C565.619288,204.996090,564.500000,203.876802,564.500000,202.496090C564.500000,201.115378,565.619288,199.996090,567,199.996090L594,199.996090C595.380712,199.996090,596.500000,201.115378,596.500000,202.496090C596.500000,203.876802,595.380712,204.996090,594,204.996090Z" transform="matrix(1 0 0 1 -205 -99.00390000000000)" fill="rgb(63,61,86)" stroke="none" stroke-width="1"/><path id="e22hg13hdcuv13" d="M594,211.996090L567,211.996090C565.619288,211.996090,564.500000,210.876802,564.500000,209.496090C564.500000,208.115378,565.619288,206.996090,567,206.996090L594,206.996090C595.380712,206.996090,596.500000,208.115378,596.500000,209.496090C596.500000,210.876802,595.380712,211.996090,594,211.996090Z" transform="matrix(1 0 0 1 -205 -99.00390000000000)" fill="rgb(63,61,86)" stroke="none" stroke-width="1"/><path id="e22hg13hdcuv14" d="M803.291560,205.046050L802.381560,205.046050L802.031560,204.756050C803.181076,203.385857,803.811277,201.654573,803.811560,199.866050C803.789410,195.757139,800.440544,192.444154,796.331633,192.466265C792.222722,192.488375,788.909704,195.837209,788.931775,199.946121C788.953847,204.055032,792.302649,207.368082,796.411560,207.346050C798.194853,207.333397,799.918919,206.704536,801.291560,205.566050L801.631560,205.856050L801.631560,206.776050L807.371560,212.526050L809.091560,210.806050ZM796.411560,205.046050C794.316461,205.054156,792.422776,203.799406,791.613528,201.866889C790.804279,199.934372,791.238835,197.704664,792.714563,196.217473C794.190290,194.730283,796.416569,194.278488,798.355290,195.072760C800.294011,195.867031,801.563375,197.750951,801.571480,199.846050L801.571540,199.866050C801.579498,201.231898,801.044548,202.544965,800.084372,203.516389C799.124196,204.487814,797.817448,205.038021,796.451600,205.045970C796.438300,205.046050,796.424930,205.046080,796.411600,205.046050Z" transform="matrix(1 0 0 1 -205 -99.00390000000000)" fill="rgb(63,61,86)" stroke="none" stroke-width="1"/><path id="e22hg13hdcuv15" d="M649.005370,289.996090L600.500000,289.996090C594.424868,289.996090,589.500000,285.071222,589.500000,278.996090C589.500000,272.920958,594.424868,267.996090,600.500000,267.996090L649.005370,267.996090C655.080502,267.996090,660.005370,272.920958,660.005370,278.996090C660.005370,285.071222,655.080502,289.996090,649.005370,289.996090Z" transform="matrix(1 0 0 1 -205 -99.00390000000000)" fill="rgb(24,144,255)" stroke="none" stroke-width="1"/><path id="e22hg13hdcuv16" d="M797.500000,313.996090L595.500000,313.996090C592.186292,313.996090,589.500000,311.309798,589.500000,307.996090C589.500000,304.682382,592.186292,301.996090,595.500000,301.996090L797.500000,301.996090C800.813708,301.996090,803.500000,304.682382,803.500000,307.996090C803.500000,311.309798,800.813708,313.996090,797.500000,313.996090Z" transform="matrix(1 0 0 1 -205 -99.00390000000000)" fill="rgb(230,230,230)" stroke="none" stroke-width="1"/><path id="e22hg13hdcuv17" d="M669.700200,337.996090L595.500000,337.996090C592.186292,337.996090,589.500000,335.309798,589.500000,331.996090C589.500000,328.682382,592.186292,325.996090,595.500000,325.996090L669.700200,325.996090C673.013908,325.996090,675.700200,328.682382,675.700200,331.996090C675.700200,335.309798,673.013908,337.996090,669.700200,337.996090Z" transform="matrix(1 0 0 1 -205 -99.00390000000000)" fill="rgb(230,230,230)" stroke="none" stroke-width="1"/><path id="e22hg13hdcuv18" d="M649.005370,555.996090L600.500000,555.996090C594.424868,555.996090,589.500000,551.071222,589.500000,544.996090C589.500000,538.920958,594.424868,533.996090,600.500000,533.996090L649.005370,533.996090C655.080502,533.996090,660.005370,538.920958,660.005370,544.996090C660.005370,551.071222,655.080502,555.996090,649.005370,555.996090Z" transform="matrix(1 0 0 1 -205 -99.00390000000000)" fill="rgb(24,144,255)" stroke="none" stroke-width="1"/><path id="e22hg13hdcuv19" d="M797.500000,579.996090L595.500000,579.996090C592.186292,579.996090,589.500000,577.309798,589.500000,573.996090C589.500000,570.682382,592.186292,567.996090,595.500000,567.996090L797.500000,567.996090C800.813708,567.996090,803.500000,570.682382,803.500000,573.996090C803.500000,577.309798,800.813708,579.996090,797.500000,579.996090Z" transform="matrix(1 0 0 1 -205 -99.00390000000000)" fill="rgb(230,230,230)" stroke="none" stroke-width="1"/><path id="e22hg13hdcuv20" d="M669.700200,603.996090L595.500000,603.996090C592.186292,603.996090,589.500000,601.309798,589.500000,597.996090C589.500000,594.682382,592.186292,591.996090,595.500000,591.996090L669.700200,591.996090C673.013908,591.996090,675.700200,594.682382,675.700200,597.996090C675.700200,601.309798,673.013908,603.996090,669.700200,603.996090Z" transform="matrix(1 0 0 1 -205 -99.00390000000000)" fill="rgb(230,230,230)" stroke="none" stroke-width="1"/><path id="e22hg13hdcuv21" d="M649.005370,678.996090L600.500000,678.996090C594.424868,678.996090,589.500000,674.071222,589.500000,667.996090C589.500000,661.920958,594.424868,656.996090,600.500000,656.996090L649.005370,656.996090C655.080502,656.996090,660.005370,661.920958,660.005370,667.996090C660.005370,674.071222,655.080502,678.996090,649.005370,678.996090Z" transform="matrix(1 0 0 1 -205 -99.00390000000000)" fill="rgb(24,144,255)" stroke="none" stroke-width="1"/><path id="e22hg13hdcuv22" d="M797.500000,702.996090L595.500000,702.996090C592.186292,702.996090,589.500000,700.309798,589.500000,696.996090C589.500000,693.682382,592.186292,690.996090,595.500000,690.996090L797.500000,690.996090C800.813708,690.996090,803.500000,693.682382,803.500000,696.996090C803.500000,700.309798,800.813708,702.996090,797.500000,702.996090Z" transform="matrix(1 0 0 1 -205 -99.00390000000000)" fill="rgb(230,230,230)" stroke="none" stroke-width="1"/><path id="e22hg13hdcuv23" d="M669.700200,726.996090L595.500000,726.996090C592.186292,726.996090,589.500000,724.309798,589.500000,720.996090C589.500000,717.682382,592.186292,714.996090,595.500000,714.996090L669.700200,714.996090C673.013908,714.996090,675.700200,717.682382,675.700200,720.996090C675.700200,724.309798,673.013908,726.996090,669.700200,726.996090Z" transform="matrix(1 0 0 1 -205 -99.00390000000000)" fill="rgb(230,230,230)" stroke="none" stroke-width="1"/><g id="e22hg13hdcuv24" transform="matrix(1 0 0 1 -0.39989999999989 51.50000250000065)"><path id="e22hg13hdcuv25" d="M826,493.496090L440,493.496090C435.307821,493.490684,431.505406,489.688269,431.500000,484.996090L431.500000,379.996090C431.505241,375.303842,435.307752,371.501331,440,371.496090L826,371.496090C830.692177,371.501501,834.494589,375.303913,834.500000,379.996090L834.500000,484.996090C834.494418,489.688196,830.692106,493.490508,826,493.496090Z" transform="matrix(1 0 0 1 -205 -99.00390000000000)" fill="rgb(24,144,255)" stroke="none" stroke-width="1"/><path id="e22hg13hdcuv26" d="M757.500000,443.496090L508.500000,443.496090C505.186292,443.496090,502.500000,440.809798,502.500000,437.496090C502.500000,434.182382,505.186292,431.496090,508.500000,431.496090L757.500000,431.496090C760.813708,431.496090,763.500000,434.182382,763.500000,437.496090C763.500000,440.809798,760.813708,443.496090,757.500000,443.496090Z" transform="matrix(1 0 0 1 -205 -99.00390000000000)" opacity="0.42" fill="rgb(230,230,230)" stroke="none" stroke-width="1"/><path id="e22hg13hdcuv27" d="M629.700200,467.496090L508.500000,467.496090C505.186292,467.496090,502.500000,464.809798,502.500000,461.496090C502.500000,458.182382,505.186292,455.496090,508.500000,455.496090L629.700200,455.496090C633.013908,455.496090,635.700200,458.182382,635.700200,461.496090C635.700200,464.809798,633.013908,467.496090,629.700200,467.496090Z" transform="matrix(1 0 0 1 -205 -99.00390000000000)" opacity="0.42" fill="rgb(230,230,230)" stroke="none" stroke-width="1"/><path id="e22hg13hdcuv28" d="M577.277000,419.496090L510.223100,419.496090C505.964590,419.496090,502.500100,414.561520,502.500100,408.496090C502.500100,402.430660,505.964640,397.496090,510.223150,397.496090L577.277000,397.496090C581.535510,397.496090,585,402.430660,585,408.496090C585,414.561520,581.535460,419.496090,577.277000,419.496090Z" transform="matrix(1 0 0 1 -205 -99.00390000000000)" opacity="0.42" fill="rgb(255,255,255)" stroke="none" stroke-width="1"/></g><path id="e22hg13hdcuv29" d="M301.231590,618.416140C304.921590,644.306140,285.381590,759.006140,287.551590,758.996090L315.611590,758.846090C316.611590,756.926090,329.491590,695.036090,333.531590,685.106090C339.171590,671.326090,344.861590,657.376090,347.081590,642.656090C349.171590,628.836090,348.141590,614.756090,346.781590,600.846090C346.909831,600.006640,346.626439,599.156748,346.020056,598.562255C345.413673,597.967761,344.558337,597.701253,343.721590,597.846090L306.071590,595.906090C298.311590,595.506090,296.471590,593.806090,297.651590,601.426090C298.471580,607.116150,300.411580,612.656130,301.231590,618.416140Z" transform="matrix(1 0 0 1 -205 -99.00390000000000)" fill="rgb(47,46,65)" stroke="none" stroke-width="1"/><path id="e22hg13hdcuv30" d="M308.631580,555.466160C300.981580,566.466160,292.961580,579.126160,295.501580,592.296160C297.431580,602.296160,305.051580,610.046160,312.241580,617.296160C340.981580,646.156160,397.651580,773.496160,397.651580,773.496160C424.999980,755.996100,396.999980,773.996100,424.751580,755.496160C422.291580,755.306160,366.401580,554.396160,361.771580,554.126160C343.041590,552.886140,326.881580,551.056150,308.631580,555.466160Z" transform="matrix(1 0 0 1 -205 -99.00390000000000)" fill="rgb(47,46,65)" stroke="none" stroke-width="1"/><path id="e22hg13hdcuv31" d="M338.890100,450.767050C335.004440,447.301780,307.697750,436.615450,307.697750,436.615450C307.195710,436.548883,306.686197,436.564168,306.189050,436.660710C304.635050,437.052960,303.926000,438.984090,304.257920,440.545600C304.589840,442.107110,301.866630,467.770070,301.165090,479.439860C299.935500,499.807300,311.929650,545.943310,311.824090,547.353940C311.413095,552.384975,309.210126,557.101423,305.615800,560.645580C306.549930,561.805120,365.880800,564.130690,369.916540,565.503580C370.731230,564.470130,365.322540,491.290680,365.073610,487.156860C364.658680,480.880670,344.019660,455.519470,338.890100,450.767050Z" transform="matrix(1 0 0 1 -205 -99.00390000000000)" fill="rgb(230,230,230)" stroke="none" stroke-width="1"/><path id="e22hg13hdcuv32" d="M296.572770,609.554570C299.419054,608.138161,301.491770,605.533776,302.233195,602.442201C302.974621,599.350627,302.308595,596.089434,300.414330,593.536140L325.447330,454.996090L302.087260,454.688250L284.703260,591.686410C280.533283,595.230797,279.673332,601.333921,282.701564,605.892560C285.729797,610.451199,291.689039,612.024441,296.572800,609.554570Z" transform="matrix(1 0 0 1 -205 -99.00390000000000)" fill="rgb(255,184,184)" stroke="none" stroke-width="1"/><path id="e22hg13hdcuv33" d="M296.371590,465.276120C295.397372,465.346960,294.427055,465.093834,293.611590,464.556120C292.221590,463.366120,303.561590,445.156120,305.801590,444.886120C313.091590,444.046120,320.591590,443.766120,327.661590,445.736120C334.731590,447.706120,341.381590,452.186120,344.541590,458.816120C345.861590,461.576120,336.291590,475.466120,331.941590,473.426120C326.731590,470.986150,303.231590,465.446140,296.371590,465.276120Z" transform="matrix(1 0 0 1 -205 -99.00390000000000)" fill="rgb(230,230,230)" stroke="none" stroke-width="1"/><circle id="e22hg13hdcuv34" r="26.238800" transform="matrix(1 0 0 1 117.10200000000000 309.88000000000000)" fill="rgb(255,184,184)" stroke="none" stroke-width="1"/><path id="e22hg13hdcuv35" d="M296.329880,452.267490C303.738875,453.042726,311.034616,450.002882,315.701203,444.196235C320.367791,438.389587,321.766687,430.610668,319.415490,423.542000C318.371280,420.402670,316.625860,417.525130,315.669630,414.357900C314.713400,411.190670,314.687320,407.445730,316.808240,404.906540C320.957910,399.938540,328.956160,403.063470,335.353480,402.075780C342.170120,401.023360,347.399760,394.483540,347.945250,387.607730C348.490740,380.731920,344.906880,373.927730,339.571830,369.556040C334.236780,365.184350,327.356120,363.031740,320.491770,362.357290C302.563340,360.595752,285.014360,368.312974,274.194622,382.716616C263.374883,397.120257,260.851354,416.124309,267.537130,432.852490C270.405000,440.028060,275.089380,446.711280,281.742990,450.641030C288.396600,454.570780,297.184280,455.325740,303.815710,451.358680" transform="matrix(1 0 0 1 -205 -99.00390000000000)" fill="rgb(47,46,65)" stroke="none" stroke-width="1"/><rect id="e22hg13hdcuv36" width="790" height="2" rx="0" ry="0" transform="matrix(1 0 0 1 0 699.99199999999996)" fill="rgb(63,61,86)" stroke="none" stroke-width="1"/><script><![CDATA[!function(t,n){"object"==typeof exports&&"undefined"!=typeof module?module.exports=n():"function"==typeof define&&define.amd?define(n):(t=t||self).__SVGATOR_PLAYER__=n()}(this,(function(){"use strict";function t(n){return(t="function"==typeof Symbol&&"symbol"==typeof Symbol.iterator?function(t){return typeof t}:function(t){return t&&"function"==typeof Symbol&&t.constructor===Symbol&&t!==Symbol.prototype?"symbol":typeof t})(n)}function n(t,n){if(!(t instanceof n))throw new TypeError("Cannot call a class as a function")}function r(t,n){for(var r=0;r<n.length;r++){var e=n[r];e.enumerable=e.enumerable||!1,e.configurable=!0,"value"in e&&(e.writable=!0),Object.defineProperty(t,e.key,e)}}function e(t,n,e){return n&&r(t.prototype,n),e&&r(t,e),t}var i=Math.abs;function u(t){return t}function o(t,n,r){var e=1-r;return 3*r*e*(t*e+n*r)+r*r*r}function a(){var t=arguments.length>0&&void 0!==arguments[0]?arguments[0]:0,n=arguments.length>1&&void 0!==arguments[1]?arguments[1]:0,r=arguments.length>2&&void 0!==arguments[2]?arguments[2]:1,e=arguments.length>3&&void 0!==arguments[3]?arguments[3]:1;return t<0||t>1||r<0||r>1?null:i(t-n)<=1e-5&&i(r-e)<=1e-5?u:function(u){if(u<=0)return t>0?u*n/t:0===n&&r>0?u*e/r:0;if(u>=1)return r<1?1+(u-1)*(e-1)/(r-1):1===r&&t<1?1+(u-1)*(n-1)/(t-1):1;for(var a,l=0,f=1;l<f;){var s=o(t,r,a=(l+f)/2);if(i(u-s)<1e-5)break;s<u?l=a:f=a}return o(n,e,a)}}function l(){return 1}function f(t){return 1===t?1:0}function s(){var t=arguments.length>0&&void 0!==arguments[0]?arguments[0]:1,n=arguments.length>1&&void 0!==arguments[1]?arguments[1]:0;if(1===t){if(0===n)return f;if(1===n)return l}var r=1/t;return function(t){return t>=1?1:(t+=n*r)-t%r}}function c(t){var n=arguments.length>1&&void 0!==arguments[1]?arguments[1]:2;if(Number.isInteger(t))return t;var r=Math.pow(10,n);return Math.round(t*r)/r}var v=Math.PI/180;function h(t,n,r){return t>=.5?r:n}function y(t,n,r){return 0===t||n===r?n:t*(r-n)+n}function d(t,n,r){var e=y(t,n,r);return e<=0?0:e}function g(t,n,r){return 0===t?n:1===t?r:{x:y(t,n.x,r.x),y:y(t,n.y,r.y)}}function m(t,n,r){return 0===t?n:1===t?r:{x:d(t,n.x,r.x),y:d(t,n.y,r.y)}}function p(t,n,r){var e=function(t,n,r){return Math.round(y(t,n,r))}(t,n,r);return e<=0?0:e>=255?255:e}function b(t,n,r){return 0===t?n:1===t?r:{r:p(t,n.r,r.r),g:p(t,n.g,r.g),b:p(t,n.b,r.b),a:y(t,null==n.a?1:n.a,null==r.a?1:r.a)}}function w(t,n,r){if(0===t)return n;if(1===t)return r;var e=n.length;if(e!==r.length)return h(t,n,r);for(var i=[],u=0;u<e;u++)i.push(b(t,n[u],r[u]));return i}function A(t,n,r){var e=n.length;if(e!==r.length)return h(t,n,r);for(var i=new Array(e),u=0;u<e;u++)i[u]=y(t,n[u],r[u]);return i}function x(t,n){for(var r=[],e=0;e<t;e++)r.push(n);return r}function k(t,n){if(--n<=0)return t;var r=(t=Object.assign([],t)).length;do{for(var e=0;e<r;e++)t.push(t[e])}while(--n>0);return t}var S=/\.0+$/g;function _(t){return Number.isInteger(t)?t+"":t.toFixed(6).replace(S,"")}function M(t){var n=arguments.length>1&&void 0!==arguments[1]?arguments[1]:" ";return t&&t.length?t.map(_).join(n):""}function I(t){return _(t.x)+","+_(t.y)}function E(t){return t?null==t.a||t.a>=1?"rgb("+t.r+","+t.g+","+t.b+")":"rgba("+t.r+","+t.g+","+t.b+","+t.a+")":"transparent"}var F={f:null,i:m,u:function(t,n){return function(r){var e=n(r);t.setAttribute("rx",_(e.x)),t.setAttribute("ry",_(e.y))}}},B={f:null,i:function(t,n,r){return 0===t?n:1===t?r:{width:d(t,n.width,r.width),height:d(t,n.height,r.height)}},u:function(t,n){return function(r){var e=n(r);t.setAttribute("width",_(e.width)),t.setAttribute("height",_(e.height))}}},j=Math.sin,q=Math.cos,P=Math.acos,O=Math.asin,z=Math.tan,L=Math.atan2,C=Math.PI/180,R=180/Math.PI,T=Math.sqrt,V=function(){function t(){var r=arguments.length>0&&void 0!==arguments[0]?arguments[0]:1,e=arguments.length>1&&void 0!==arguments[1]?arguments[1]:0,i=arguments.length>2&&void 0!==arguments[2]?arguments[2]:0,u=arguments.length>3&&void 0!==arguments[3]?arguments[3]:1,o=arguments.length>4&&void 0!==arguments[4]?arguments[4]:0,a=arguments.length>5&&void 0!==arguments[5]?arguments[5]:0;n(this,t),this.m=[r,e,i,u,o,a],this.i=null,this.w=null,this.s=null}return e(t,[{key:"point",value:function(t,n){var r=this.m;return{x:r[0]*t+r[2]*n+r[4],y:r[1]*t+r[3]*n+r[5]}}},{key:"translateSelf",value:function(){var t=arguments.length>0&&void 0!==arguments[0]?arguments[0]:0,n=arguments.length>1&&void 0!==arguments[1]?arguments[1]:0;if(!t&&!n)return this;var r=this.m;return r[4]+=r[0]*t+r[2]*n,r[5]+=r[1]*t+r[3]*n,this.w=this.s=this.i=null,this}},{key:"rotateSelf",value:function(){var t=arguments.length>0&&void 0!==arguments[0]?arguments[0]:0;if(t%=360){var n=j(t*=C),r=q(t),e=this.m,i=e[0],u=e[1];e[0]=i*r+e[2]*n,e[1]=u*r+e[3]*n,e[2]=e[2]*r-i*n,e[3]=e[3]*r-u*n,this.w=this.s=this.i=null}return this}},{key:"scaleSelf",value:function(){var t=arguments.length>0&&void 0!==arguments[0]?arguments[0]:1,n=arguments.length>1&&void 0!==arguments[1]?arguments[1]:1;if(1!==t||1!==n){var r=this.m;r[0]*=t,r[1]*=t,r[2]*=n,r[3]*=n,this.w=this.s=this.i=null}return this}},{key:"skewSelf",value:function(t,n){if(n%=360,(t%=360)||n){var r=this.m,e=r[0],i=r[1],u=r[2],o=r[3];t&&(t=z(t*C),r[2]+=e*t,r[3]+=i*t),n&&(n=z(n*C),r[0]+=u*n,r[1]+=o*n),this.w=this.s=this.i=null}return this}},{key:"resetSelf",value:function(){var t=arguments.length>0&&void 0!==arguments[0]?arguments[0]:1,n=arguments.length>1&&void 0!==arguments[1]?arguments[1]:0,r=arguments.length>2&&void 0!==arguments[2]?arguments[2]:0,e=arguments.length>3&&void 0!==arguments[3]?arguments[3]:1,i=arguments.length>4&&void 0!==arguments[4]?arguments[4]:0,u=arguments.length>5&&void 0!==arguments[5]?arguments[5]:0,o=this.m;return o[0]=t,o[1]=n,o[2]=r,o[3]=e,o[4]=i,o[5]=u,this.w=this.s=this.i=null,this}},{key:"recomposeSelf",value:function(){var t=arguments.length>0&&void 0!==arguments[0]?arguments[0]:null,n=arguments.length>1&&void 0!==arguments[1]?arguments[1]:null,r=arguments.length>2&&void 0!==arguments[2]?arguments[2]:null,e=arguments.length>3&&void 0!==arguments[3]?arguments[3]:null,i=arguments.length>4&&void 0!==arguments[4]?arguments[4]:null;return this.isIdentity||this.resetSelf(),t&&(t.x||t.y)&&this.translateSelf(t.x,t.y),n&&this.rotateSelf(n),r&&(r.x&&this.skewSelf(r.x,0),r.y&&this.skewSelf(0,r.y)),!e||1===e.x&&1===e.y||this.scaleSelf(e.x,e.y),i&&(i.x||i.y)&&this.translateSelf(i.x,i.y),this}},{key:"decompose",value:function(){var t=arguments.length>0&&void 0!==arguments[0]?arguments[0]:0,n=arguments.length>1&&void 0!==arguments[1]?arguments[1]:0,r=this.m,e=r[0]*r[0]+r[1]*r[1],i=[[r[0],r[1]],[r[2],r[3]]],u=T(e);if(0===u)return{origin:{x:r[4],y:r[5]},translate:{x:t,y:n},scale:{x:0,y:0},skew:{x:0,y:0},rotate:0};i[0][0]/=u,i[0][1]/=u;var o=r[0]*r[3]-r[1]*r[2]<0;o&&(u=-u);var a=i[0][0]*i[1][0]+i[0][1]*i[1][1];i[1][0]-=i[0][0]*a,i[1][1]-=i[0][1]*a;var l=T(i[1][0]*i[1][0]+i[1][1]*i[1][1]);if(0===l)return{origin:{x:r[4],y:r[5]},translate:{x:t,y:n},scale:{x:u,y:0},skew:{x:0,y:0},rotate:0};i[1][0]/=l,i[1][1]/=l,a/=l;var f=0;return i[1][1]<0?(f=P(i[1][1])*R,i[0][1]<0&&(f=360-f)):f=O(i[0][1])*R,o&&(f=-f),a=L(a,T(i[0][0]*i[0][0]+i[0][1]*i[0][1]))*R,{origin:{x:r[4],y:r[5]},translate:{x:t,y:n},scale:{x:u,y:l},skew:{x:a,y:0},rotate:f}}},{key:"toString",value:function(){return null===this.s&&(this.s="matrix("+this.m.map(N).join(" ")+")"),this.s}},{key:"determinant",get:function(){var t=this.m;return t[0]*t[3]-t[1]*t[2]}},{key:"isIdentity",get:function(){if(null===this.i){var t=this.m;this.i=1===t[0]&&0===t[1]&&0===t[2]&&1===t[3]&&0===t[4]&&0===t[5]}return this.i}}]),t}(),D=/\.0+$/;function N(t){return Number.isInteger(t)?t:t.toFixed(14).replace(D,"")}Object.freeze({M:2,L:2,Z:0,H:1,V:1,C:6,Q:4,T:2,S:4,A:7});function G(t,n,r){return t+(n-t)*r}function $(t,n,r){var e=arguments.length>3&&void 0!==arguments[3]&&arguments[3],i={x:G(t.x,n.x,r),y:G(t.y,n.y,r)};return e&&(i.a=H(t,n)),i}function H(t,n){return Math.atan2(n.y-t.y,n.x-t.x)}function Q(t,n,r,e){var i=1-e;return i*i*t+2*i*e*n+e*e*r}function U(t,n,r,e){return 2*(1-e)*(n-t)+2*e*(r-n)}function Y(t,n,r,e){var i=arguments.length>4&&void 0!==arguments[4]&&arguments[4],u={x:Q(t.x,n.x,r.x,e),y:Q(t.y,n.y,r.y,e)};return i&&(u.a=Z(t,n,r,e)),u}function Z(t,n,r,e){return Math.atan2(U(t.y,n.y,r.y,e),U(t.x,n.x,r.x,e))}function J(t,n,r,e,i){var u=i*i;return i*u*(e-t+3*(n-r))+3*u*(t+r-2*n)+3*i*(n-t)+t}function K(t,n,r,e,i){var u=1-i;return 3*(u*u*(n-t)+2*u*i*(r-n)+i*i*(e-r))}function W(t,n,r,e,i){var u=arguments.length>5&&void 0!==arguments[5]&&arguments[5],o={x:J(t.x,n.x,r.x,e.x,i),y:J(t.y,n.y,r.y,e.y,i)};return u&&(o.a=X(t,n,r,e,i)),o}function X(t,n,r,e,i){return Math.atan2(K(t.y,n.y,r.y,e.y,i),K(t.x,n.x,r.x,e.x,i))}function tt(t,n,r){var e=arguments.length>3&&void 0!==arguments[3]&&arguments[3];if(rt(n)){if(et(r))return Y(n,r.start,r,t,e)}else if(rt(r)){if(n.end)return Y(n,n.end,r,t,e)}else{if(n.end)return r.start?W(n,n.end,r.start,r,t,e):Y(n,n.end,r,t,e);if(r.start)return Y(n,r.start,r,t,e)}return $(n,r,t,e)}function nt(t,n,r){var e=tt(t,n,r,!0);return e.a=function(t){var n=arguments.length>1&&void 0!==arguments[1]&&arguments[1];return n?t+Math.PI:t}(e.a)/v,e}function rt(t){return!t.type||"corner"===t.type}function et(t){return null!=t.start&&!rt(t)}var it=new V;var ut={f:function(t){return t?t.join(" "):""},i:function(n,r,e){if(0===n)return r;if(1===n)return e;var i=r.length;if(i!==e.length)return h(n,r,e);for(var u,o=new Array(i),a=0;a<i;a++){if((u=t(r[a]))!==t(e[a]))return h(n,r,e);if("number"===u)o[a]=y(n,r[a],e[a]);else{if(r[a]!==e[a])return h(n,r,e);o[a]=r[a]}}return o}},ot={f:null,i:A,u:function(t,n){return function(r){var e=n(r);t.setAttribute("x1",_(e[0])),t.setAttribute("y1",_(e[1])),t.setAttribute("x2",_(e[2])),t.setAttribute("y2",_(e[3]))}}},at={f:_,i:y},lt={f:_,i:function(t,n,r){var e=y(t,n,r);return e<=0?0:e>=1?1:e}},ft={f:M,i:function(t,n,r){var e,i,u,o=n.length,a=r.length;if(o!==a)if(0===o)n=x(o=a,0);else if(0===a)a=o,r=x(o,0);else{var l=(u=(e=o)*(i=a)/function(t,n){for(var r;n;)r=n,n=t%n,t=r;return t||1}(e,i))<0?-u:u;n=k(n,Math.floor(l/o)),r=k(r,Math.floor(l/a)),o=a=l}for(var f=[],s=0;s<o;s++)f.push(c(d(t,n[s],r[s]),6));return f}};function st(t,n,r,e,i,u,o,a){return n=function(t,n,r){for(var e,i,u,o=t.length-1,a={},l=0;l<=o;l++)(e=t[l]).e&&(e.e=n(e.e)),e.v&&"g"===(i=e.v).t&&i.r&&(u=r.getElementById(i.r))&&(a[i.r]=u.querySelectorAll("stop"));return a}(t,e,a),function(e){var i,u=r(e,t,ct);return u?"c"===u.t?E(u.v):"g"===u.t?(n[u.r]&&function(t,n){for(var r=0,e=t.length;r<e;r++)t[r].setAttribute("stop-color",E(n[r]))}(n[u.r],u.v),(i=u.r)?"url(#"+i+")":"none"):"none":"none"}}function ct(t,n,r){if(0===t)return n;if(1===t)return r;if(n&&r){var e=n.t;if(e===r.t)switch(n.t){case"c":return{t:e,v:b(t,n.v,r.v)};case"g":if(n.r===r.r)return{t:e,v:w(t,n.v,r.v),r:n.r}}}return h(t,n,r)}var vt={blur:m,brightness:d,contrast:d,"drop-shadow":function(t,n,r){return 0===t?n:1===t?r:{blur:m(t,n.blur,r.blur),offset:g(t,n.offset,r.offset),color:b(t,n.color,r.color)}},grayscale:d,"hue-rotate":y,invert:d,opacity:d,saturate:d,sepia:d};function ht(t,n,r){if(0===t)return n;if(1===t)return r;var e=n.length;if(e!==r.length)return h(t,n,r);for(var i,u=[],o=0;o<e;o++){if(n[o].type!==r[o].type)return n;if(!(i=vt[n[o].type]))return h(t,n,r);u.push({type:n.type,value:i(t,n[o].value,r[o].value)})}return u}var yt={blur:function(t){return t?function(n){t.setAttribute("stdDeviation",I(n))}:null},brightness:function(t,n,r){return(t=gt(r,n))?function(n){n=_(n),t.map((function(t){return t.setAttribute("slope",n)}))}:null},contrast:function(t,n,r){return(t=gt(r,n))?function(n){var r=_((1-n)/2);n=_(n),t.map((function(t){t.setAttribute("slope",n),t.setAttribute("intercept",r)}))}:null},"drop-shadow":function(t,n,r){var e=r.getElementById(n+"-blur");if(!e)return null;var i=r.getElementById(n+"-offset");if(!i)return null;var u=r.getElementById(n+"-flood");return u?function(t){e.setAttribute("stdDeviation",I(t.blur)),i.setAttribute("dx",_(t.offset.x)),i.setAttribute("dy",_(t.offset.y)),u.setAttribute("flood-color",E(t.color))}:null},grayscale:function(t){return t?function(n){t.setAttribute("values",M(function(t){return[.2126+.7874*(t=1-t),.7152-.7152*t,.0722-.0722*t,0,0,.2126-.2126*t,.7152+.2848*t,.0722-.0722*t,0,0,.2126-.2126*t,.7152-.7152*t,.0722+.9278*t,0,0,0,0,0,1,0]}(n)))}:null},"hue-rotate":function(t){return t?function(n){return t.setAttribute("values",_(n))}:null},invert:function(t,n,r){return(t=gt(r,n))?function(n){n=_(n)+" "+_(1-n),t.map((function(t){return t.setAttribute("tableValues",n)}))}:null},opacity:function(t,n,r){return(t=r.getElementById(n+"-A"))?function(n){return t.setAttribute("tableValues","0 "+_(n))}:null},saturate:function(t){return t?function(n){return t.setAttribute("values",_(n))}:null},sepia:function(t){return t?function(n){return t.setAttribute("values",M(function(t){return[.393+.607*(t=1-t),.769-.769*t,.189-.189*t,0,0,.349-.349*t,.686+.314*t,.168-.168*t,0,0,.272-.272*t,.534-.534*t,.131+.869*t,0,0,0,0,0,1,0]}(n)))}:null}};var dt=["R","G","B"];function gt(t,n){var r=dt.map((function(r){return t.getElementById(n+"-"+r)||null}));return-1!==r.indexOf(null)?null:r}var mt={fill:st,"fill-opacity":lt,stroke:st,"stroke-opacity":lt,"stroke-width":at,"stroke-dashoffset":{f:_,i:y},"stroke-dasharray":ft,opacity:lt,transform:function(n,r,e,i){if(!(n=function(n,r){if(!n||"object"!==t(n))return null;var e=!1;for(var i in n)n.hasOwnProperty(i)&&(n[i]&&n[i].length?(n[i].forEach((function(t){t.e&&(t.e=r(t.e))})),e=!0):delete n[i]);return e?n:null}(n,i)))return null;var u=function(t,i,u){var o=arguments.length>3&&void 0!==arguments[3]?arguments[3]:null;return n[t]?e(i,n[t],u):r&&r[t]?r[t]:o};return r&&r.a&&n.o?function(t){var r=e(t,n.o,nt);return it.recomposeSelf(r,u("r",t,y,0)+r.a,u("k",t,g),u("s",t,g),u("t",t,g)).toString()}:function(t){return it.recomposeSelf(u("o",t,tt,null),u("r",t,y,0),u("k",t,g),u("s",t,g),u("t",t,g)).toString()}},"#filter":function(t,n,r,e,i,u,o,a){if(!n.items||!t||!t.length)return null;var l=function(t,n){var r=(t=t.map((function(t){return t&&yt[t[0]]?(n.getElementById(t[1]),yt[t[0]](n.getElementById(t[1]),t[1],n)):null}))).length;return function(n){for(var e=0;e<r;e++)t[e]&&t[e](n[e].value)}}(n.items,a);return l?(t=function(t,n){return t.map((function(t){return t.e=n(t.e),t}))}(t,e),function(n){l(r(n,t,ht))}):null},"#line":ot,points:{f:M,i:A},d:ut,r:at,"#size":B,"#radius":F,_:function(t,n){if(Array.isArray(t))for(var r=0;r<t.length;r++)this[t[r]]=n;else this[t]=n}},pt=function(){function t(r){n(this,t),this.list=r,this.length=r.length}return e(t,[{key:"setAttribute",value:function(t,n){for(var r=this.list,e=0;e<this.length;e++)r[e].setAttribute(t,n)}},{key:"removeAttribute",value:function(t){for(var n=this.list,r=0;r<this.length;r++)n[r].removeAttribute(t)}},{key:"style",value:function(t,n){for(var r=this.list,e=0;e<this.length;e++)r[e].style[t]=n}}]),t}(),bt=/-./g,wt=function(t,n){return n.toUpperCase()};function At(t){return"function"==typeof t?t:h}function xt(t){return t?"function"==typeof t?t:Array.isArray(t)?function(t){var n=arguments.length>1&&void 0!==arguments[1]?arguments[1]:u;if(!Array.isArray(t))return n;switch(t.length){case 1:return s(t[0])||n;case 2:return s(t[0],t[1])||n;case 4:return a(t[0],t[1],t[2],t[3])||n}return n}(t,null):function(t,n){var r=arguments.length>2&&void 0!==arguments[2]?arguments[2]:u;switch(t){case"linear":return u;case"steps":return s(n.steps||1,n.jump||0)||r;case"bezier":case"cubic-bezier":return a(n.x1||0,n.y1||0,n.x2||0,n.y2||0)||r}return r}(t.type,t.value,null):null}function kt(t,n,r){var e=arguments.length>3&&void 0!==arguments[3]&&arguments[3],i=n.length-1;if(t<=n[0].t)return e?[0,0,n[0].v]:n[0].v;if(t>=n[i].t)return e?[i,1,n[i].v]:n[i].v;var u,o=n[0],a=null;for(u=1;u<=i;u++){if(!(t>n[u].t)){a=n[u];break}o=n[u]}return null==a?e?[i,1,n[i].v]:n[i].v:o.t===a.t?e?[u,1,a.v]:a.v:(t=(t-o.t)/(a.t-o.t),o.e&&(t=o.e(t)),e?[u,t,r(t,o.v,a.v)]:r(t,o.v,a.v))}function St(t,n){var r=arguments.length>2&&void 0!==arguments[2]?arguments[2]:null;return t&&t.length?"function"!=typeof n?null:("function"!=typeof r&&(r=null),function(e){var i=kt(e,t,n);return null!=i&&r&&(i=r(i)),i}):null}function _t(t,n){return t.t-n.t}function Mt(n,r,e,i,u){var o,a="@"===e[0],l="#"===e[0],f=mt[e],s=h;switch(a?(o=e.substr(1),e=o.replace(bt,wt)):l&&(e=e.substr(1)),t(f)){case"function":if(s=f(i,u,kt,xt,e,a,r,n),l)return s;break;case"string":s=St(i,At(f));break;case"object":if((s=St(i,At(f.i),f.f))&&"function"==typeof f.u)return f.u(r,s,e,a,n)}return s?function(t,n,r){var e=arguments.length>3&&void 0!==arguments[3]&&arguments[3];if(e)return t instanceof pt?function(e){return t.style(n,r(e))}:function(e){return t.style[n]=r(e)};if(Array.isArray(n)){var i=n.length;return function(e){var u=r(e);if(null==u)for(var o=0;o<i;o++)t[o].removeAttribute(n);else for(var a=0;a<i;a++)t[a].setAttribute(n,u)}}return function(e){var i=r(e);null==i?t.removeAttribute(n):t.setAttribute(n,i)}}(r,e,s,a):null}function It(n,r,e,i){if(!i||"object"!==t(i))return null;var u=null,o=null;return Array.isArray(i)?o=function(t){if(!t||!t.length)return null;for(var n=0;n<t.length;n++)t[n].e&&(t[n].e=xt(t[n].e));return t.sort(_t)}(i):(o=i.keys,u=i.data||null),o?Mt(n,r,e,o,u):null}function Et(t,n,r){if(!r)return null;var e=[];for(var i in r)if(r.hasOwnProperty(i)){var u=It(t,n,i,r[i]);u&&e.push(u)}return e.length?e:null}function Ft(t,n){if(!n.duration||n.duration<0)return null;var r=function(t,n){if(!n)return null;var r=[];if(Array.isArray(n))for(var e=n.length,i=0;i<e;i++){var u=n[i];if(2===u.length){var o=null;if("string"==typeof u[0])o=t.getElementById(u[0]);else if(Array.isArray(u[0])){o=[];for(var a=0;a<u[0].length;a++)if("string"==typeof u[0][a]){var l=t.getElementById(u[0][a]);l&&o.push(l)}o=o.length?1===o.length?o[0]:new pt(o):null}if(o){var f=Et(t,o,u[1]);f&&(r=r.concat(f))}}}else for(var s in n)if(n.hasOwnProperty(s)){var c=t.getElementById(s);if(c){var v=Et(t,c,n[s]);v&&(r=r.concat(v))}}return r.length?r:null}(t,n.elements);return r?function(t,n){var r=arguments.length>2&&void 0!==arguments[2]?arguments[2]:1/0,e=arguments.length>3&&void 0!==arguments[3]?arguments[3]:1,i=arguments.length>4&&void 0!==arguments[4]&&arguments[4],u=arguments.length>5&&void 0!==arguments[5]?arguments[5]:1,o=t.length,a=e>0?n:0;i&&r%2==0&&(a=n-a);var l=null;return function(f,s){var c=f%n,v=1+(f-c)/n;s*=e,i&&v%2==0&&(s=-s);var h=!1;if(v>r)c=a,h=!0,-1===u&&(c=e>0?0:n);else if(s<0&&(c=n-c),c===l)return!1;l=c;for(var y=0;y<o;y++)t[y](c);return h}}(r,n.duration,n.iterations||1/0,n.direction||1,!!n.alternate,n.fill||1):null}var Bt=function(){function t(r){var e=arguments.length>1&&void 0!==arguments[1]?arguments[1]:{};n(this,t),this._id=0,this._running=!1,this._animations=r,this.direction=e.direction||1,this.speed=e.speed||1,this.fps=e.fps||100,this.offset=e.offset||0}return e(t,[{key:"_start",value:function(){var t=this,n=arguments.length>0&&void 0!==arguments[0]?arguments[0]:0,r=-1/0,e=null,i={},u=function u(o){t._running=!0,null==e&&(e=o);var a=Math.round((o-e+n)*t.speed),l=t.fps?1e3/t.fps:0;if(a>r+l){t.offset=a,r=a;for(var f=t._animations,s=f.length,c=0,v=0;v<s;v++)i[v]?c++:(i[v]=f[v](a,t.direction),i[v]&&c++);if(c===s)return void t._stop()}t._id=window.requestAnimationFrame(u)};this._id=window.requestAnimationFrame(u)}},{key:"_stop",value:function(){this._id&&window.cancelAnimationFrame(this._id),this._running=!1}},{key:"play",value:function(){this._running||this._start(this.offset)}},{key:"stop",value:function(){this._stop(),this.offset=0;var t=this.direction,n=this._animations;requestAnimationFrame((function(){for(var r=0;r<n.length;r++)n[r](0,t)}))}},{key:"restart",value:function(){this._stop(),this.offset=0,this._start()}},{key:"pause",value:function(){this._stop()}},{key:"reverse",value:function(){this.direction=-this.direction}}],[{key:"build",value:function(n){if(!(n=function(t){if(!t||!t.root||!Array.isArray(t.animations))return null;var n=window.document.getElementById(t.root);if(!n)return null;var r=t.animations.map((function(t){return Ft(n,t)})).filter((function(t){return!!t}));return r.length?{element:n,animations:r,options:t.options||void 0}:null}(n)))return null;var r=n.element,e=n.options||{},i=new t(n.animations,n.options);return function(t,n,r){var e=arguments.length>3&&void 0!==arguments[3]?arguments[3]:null;if("click"===r){var i=function r(){n.removeEventListener("click",r),t.play()};return void n.addEventListener("click",i)}if("hover"===r)return n.addEventListener("mouseenter",(function(){return t.play()})),void n.addEventListener("mouseleave","freeze"===e?function(){return t.pause()}:function(){return t.stop()});t.play()}(i,r,e.start,e.hover),i}}]),t}();return function(){for(var t=0,n=["ms","moz","webkit","o"],r=0;r<n.length&&!window.requestAnimationFrame;++r)window.requestAnimationFrame=window[n[r]+"RequestAnimationFrame"],window.cancelAnimationFrame=window[n[r]+"CancelAnimationFrame"]||window[n[r]+"CancelRequestAnimationFrame"];window.requestAnimationFrame||(window.requestAnimationFrame=function(n){var r=Date.now(),e=Math.max(0,16-(r-t)),i=window.setTimeout((function(){n(r+e)}),e);return t=r+e,i},window.cancelAnimationFrame=window.clearTimeout)}(),Bt}));
__SVGATOR_PLAYER__.build({"root":"e22hg13hdcuv1","animations":[{"duration":3000,"direction":-1,"iterations":0,"fill":1,"alternate":true,"elements":{"e22hg13hdcuv6":{"transform":{"keys":{"o":[{"t":0,"v":{"x":-205,"y":-99.0039,"type":"corner"}},{"t":400,"v":{"x":-199.98084355499998,"y":-122.64571440999971,"type":"corner"}},{"t":1400,"v":{"x":-201.91128834153844,"y":-113.55270886769213,"type":"corner"}},{"t":2000,"v":{"x":-228.74221839346143,"y":-55.81649515230754,"type":"corner"}},{"t":3000,"v":{"x":-228.74221839346143,"y":-88.94310264730763,"type":"corner"}}]}}},"e22hg13hdcuv24":{"transform":{"keys":{"o":[{"t":0,"v":{"x":0,"y":0,"type":"corner"}},{"t":1000,"v":{"x":-0.39990000000000236,"y":-131.3866089549998,"type":"corner"}},{"t":2300,"v":{"x":-0.39990000000000236,"y":185.5000025000006,"type":"corner"}},{"t":3000,"v":{"x":-0.3998999999998887,"y":51.50000250000065,"type":"corner"}}]}}},"e22hg13hdcuv26":{"opacity":[{"t":0,"v":1},{"t":1000,"v":0.42},{"t":2000,"v":1},{"t":3000,"v":0.42}]},"e22hg13hdcuv27":{"opacity":[{"t":0,"v":1},{"t":1000,"v":0.42},{"t":2000,"v":1},{"t":3000,"v":0.42}]},"e22hg13hdcuv28":{"opacity":[{"t":0,"v":1},{"t":1000,"v":0.42},{"t":2000,"v":1},{"t":3000,"v":0.42}]}}}],"options":{"start":"load","hover":"freeze"}})]]></script></svg>